<svg id="Vector_Smart_Object" data-name="Vector Smart Object" xmlns="http://www.w3.org/2000/svg" xmlns:xlink="http://www.w3.org/1999/xlink" width="504" height="636" viewBox="0 0 504 636">
  <defs>
    <clipPath id="clip-path">
      <rect id="Rectangle_3" data-name="Rectangle 3" width="504" height="636" fill="none"/>
    </clipPath>
  </defs>
  <g id="Group_4" data-name="Group 4">
    <g id="Group_3" data-name="Group 3" clip-path="url(#clip-path)">
      <path id="Path_183" data-name="Path 183" d="M485.318,339.155c-6-2.151-11.418-2.338-16.3-.592-6.255,2.247-12.973-1.584-12.973-8.074v-21.05a9.085,9.085,0,0,0-6.068-8.549,44.314,44.314,0,0,1-11.213-5.911,30.625,30.625,0,0,1-6.964-6.719V550.131a9.361,9.361,0,0,0,9.491,9.237h5.267a9.365,9.365,0,0,0,9.487-9.237V372.26q0-11.336,11.847-11.338,11.866-.2,11.864,11.338v177.87a9.358,9.358,0,0,0,9.491,9.237h5.263A9.369,9.369,0,0,0,504,550.131V372.26c0-17.662-6.234-28.666-18.686-33.106" fill="#fff"/>
      <path id="Path_184" data-name="Path 184" d="M408.3,372.548v-5.123a9.371,9.371,0,0,0-9.491-9.233H369.568a9.366,9.366,0,0,1-9.491-9.233V309.471a9.1,9.1,0,0,0-6.038-8.537A45.642,45.642,0,0,1,343,295.107a30.519,30.519,0,0,1-7.168-6.849v236.5c0,10.955,3.82,19.55,11.314,25.878,6.7,5.865,14.942,8.733,24.779,8.733,9.854,0,18.152-2.868,24.787-8.733,7.565-6.328,11.389-14.923,11.389-25.878V463.486a9.369,9.369,0,0,0-9.491-9.237h-5.329a9.364,9.364,0,0,0-9.491,9.237v61.272c0,7.5-3.953,11.28-11.864,11.28-7.894,0-11.847-3.781-11.847-11.28V391.018a9.364,9.364,0,0,1,9.491-9.237h29.241a9.368,9.368,0,0,0,9.491-9.233" fill="#fff"/>
      <path id="Path_185" data-name="Path 185" d="M14.762,397.833H9.491c-5.242,0-9.491-4.135-9.491-6.7V54.869c0-7.641,4.249-11.763,9.491-11.763h5.271a9.355,9.355,0,0,1,9.491,9.233v.254Q35.588,35.661,53.515,42.33,72.218,49,72.226,75.169V255.186q0,26.68-18.711,33.347-8.964,3.2-16.28.509c-6.243-2.293-12.982,1.517-12.982,8.008V388.6a9.364,9.364,0,0,1-9.491,9.237M24.253,255.44q0,12.774,15.183,11.092a9.438,9.438,0,0,0,8.54-9.221V75.169q0-11.3-11.864-11.3t-11.86,11.3Z" fill="#fff"/>
      <path id="Path_186" data-name="Path 186" d="M110.712,290.272h-5.271a9.371,9.371,0,0,1-9.491-9.233V9.237A9.366,9.366,0,0,1,105.441,0h5.271A9.36,9.36,0,0,1,120.2,9.237v271.8a9.366,9.366,0,0,1-9.491,9.233" fill="#fff"/>
      <path id="Path_187" data-name="Path 187" d="M191.909,129.25h.263V74.623q0-11.292-12.127-11.288-11.866,0-11.864,11.288V99.758a9.362,9.362,0,0,1-9.491,9.229h-5.271a9.365,9.365,0,0,1-9.491-9.229V74.623q0-15.907,11.33-25.648c6.681-5.823,14.942-8.383,24.787-8.554s18.094,2.218,24.775,8.037q11.347,9.491,11.33,26.165V278.017a9.357,9.357,0,0,1-9.487,9.233h-5a9.359,9.359,0,0,1-9.487-9.233q-11.347,17.182-29.524,10.263-18.715-7.184-18.72-33.085V187.729q0-36.422,34.266-46.678,13.711-3.852,13.715-11.8m0,30.784c-1.41.509-3.7,1.2-6.856,2.047q-16.87,5.14-16.872,24.118v67.449q0,11.3,11.864,11.3,11.854.244,11.864-11.3Z" fill="#fff"/>
      <path id="Path_188" data-name="Path 188" d="M254.644,290.268h-5.271a9.366,9.366,0,0,1-9.491-9.233V52.439a9.361,9.361,0,0,1,9.491-9.237h5.271a9.366,9.366,0,0,1,9.491,9.237v.254q11.328-16.926,29.253-10.521,18.715,6.665,18.72,33.093v205.77a9.371,9.371,0,0,1-9.491,9.233h-5.271a9.365,9.365,0,0,1-9.487-9.233V75.265q0-11.555-11.864-11.288-11.866,0-11.86,11.288v205.77a9.371,9.371,0,0,1-9.491,9.233" fill="#fff"/>
      <path id="Path_189" data-name="Path 189" d="M393.3,197.933h5.271a9.363,9.363,0,0,1,9.487,9.237v48.47q0,16.676-11.33,26.165-10.015,8.466-24.779,8.466-14.5-.263-24.783-8.975-11.334-9.492-11.33-25.657V75.069q0-15.9,11.33-25.644,10.29-8.729,24.783-8.979,14.756,0,24.779,8.458,11.334,9.491,11.33,26.165v92.856a9.367,9.367,0,0,1-9.487,9.233H369.572a9.36,9.36,0,0,0-9.491,9.233v69.25q0,11.292,11.864,11.288,11.86.263,11.86-11.288V207.17a9.366,9.366,0,0,1,9.491-9.237M369.572,153.56h4.741a9.371,9.371,0,0,0,9.491-9.233V75.069q0-11.542-11.86-11.28-11.866,0-11.864,11.28v69.258a9.366,9.366,0,0,0,9.491,9.233" fill="#fff"/>
      <path id="Path_190" data-name="Path 190" d="M105.441,467.029h5.271a9.354,9.354,0,0,1,9.487,9.233v48.474q0,16.663-11.33,26.165-10.015,8.466-24.783,8.466-14.493-.269-24.779-8.983-11.334-9.491-11.33-25.648V344.165q0-15.907,11.33-25.652,10.29-8.716,24.779-8.97,14.762,0,24.783,8.458,11.334,9.492,11.33,26.165v92.847a9.359,9.359,0,0,1-9.487,9.233H81.718a9.371,9.371,0,0,0-9.491,9.233v69.258q0,11.28,11.86,11.28,11.866.263,11.864-11.28V476.262a9.36,9.36,0,0,1,9.491-9.233M81.718,422.648h4.741a9.359,9.359,0,0,0,9.491-9.229V344.165q0-11.542-11.864-11.288-11.854,0-11.86,11.288v69.254a9.365,9.365,0,0,0,9.491,9.229" fill="#fff"/>
      <path id="Path_191" data-name="Path 191" d="M191.909,398.346h.263V344.178q0-11.292-12.127-11.288-11.866,0-11.864,11.288v25.136a9.368,9.368,0,0,1-9.491,9.233h-5.271a9.371,9.371,0,0,1-9.491-9.233V344.178q0-15.9,11.33-25.652,10.021-8.722,24.787-8.975t24.775,8.466q11.347,9.491,11.33,26.161V547.113a9.36,9.36,0,0,1-9.487,9.237h-5a9.363,9.363,0,0,1-9.487-9.237q-11.347,17.189-29.524,10.267-18.715-7.2-18.72-33.089V456.829q0-36.422,34.266-46.682,13.711-3.852,13.715-11.8m0,30.78c-1.41.517-3.7,1.2-6.856,2.051q-16.87,5.133-16.872,24.114v67.457q0,11.292,11.864,11.288,11.854.25,11.864-11.288Z" fill="#fff"/>
      <path id="Path_192" data-name="Path 192" d="M254.644,559.368h-5.271a9.366,9.366,0,0,1-9.491-9.233V321.176a9.366,9.366,0,0,1,9.491-9.233h5.271a9.371,9.371,0,0,1,9.491,9.233v.517q11.328-16.932,29.253-10.258,18.715,6.922,18.72,33.085v16.586a9.372,9.372,0,0,1-9.491,9.237h-5.271a9.365,9.365,0,0,1-9.487-9.237V342.4a9.439,9.439,0,0,0-8.54-9.225q-15.194-1.676-15.183,11.088V550.135a9.371,9.371,0,0,1-9.491,9.233" fill="#fff"/>
      <path id="Path_193" data-name="Path 193" d="M455.768,255.645q0,11.28,11.86,11.28t11.864-11.28v-61.3a9.367,9.367,0,0,1,9.487-9.229h5.267a9.363,9.363,0,0,1,9.5,9.229v61.3q0,16.413-11.33,25.907-10.021,8.716-24.783,8.716t-24.779-8.716q-11.341-9.5-11.334-25.907V9.233A9.371,9.371,0,0,1,441.006,0h5.271a9.371,9.371,0,0,1,9.491,9.233V79.858a9.363,9.363,0,0,0,9.491,9.233h29.262A9.362,9.362,0,0,1,504,98.329v5.127a9.361,9.361,0,0,1-9.483,9.233H465.26a9.366,9.366,0,0,0-9.491,9.237Z" fill="#fff"/>
      <path id="Path_194" data-name="Path 194" d="M86.813,610.118A41.541,41.541,0,0,0,76.651,608l-9.262-1.03a14.479,14.479,0,0,1-5.713-1.513,3.207,3.207,0,0,1-1.605-2.839c0-1.613.9-2.855,2.69-3.722a16.821,16.821,0,0,1,7.231-1.3,19.3,19.3,0,0,1,5.78.759,10.062,10.062,0,0,1,3.811,2.055,5.032,5.032,0,0,1,1.664,3.114H92.8a12.368,12.368,0,0,0-3.207-7.741,19.764,19.764,0,0,0-7.927-5.2,32.182,32.182,0,0,0-11.43-1.876,34.714,34.714,0,0,0-11.405,1.692,16.809,16.809,0,0,0-7.565,4.9,11.629,11.629,0,0,0-2.69,7.741,11.063,11.063,0,0,0,4.083,9.07q4.091,3.326,13.219,4.235l8.774.9q4.541.481,6.2,1.542a3.363,3.363,0,0,1,1.66,2.993q0,2.538-2.869,3.935a18.454,18.454,0,0,1-7.9,1.388,20.16,20.16,0,0,1-6.143-.846,10.29,10.29,0,0,1-4.2-2.422,6.327,6.327,0,0,1-1.872-3.627H47.973a13.2,13.2,0,0,0,3.178,8.253A19.605,19.605,0,0,0,59.374,634a34.074,34.074,0,0,0,12.189,2,32.832,32.832,0,0,0,11.768-1.934,18.24,18.24,0,0,0,7.869-5.411,12.55,12.55,0,0,0,2.806-8.133,11.344,11.344,0,0,0-1.689-6.411,11.1,11.1,0,0,0-5.5-3.993" fill="#fff"/>
      <path id="Path_195" data-name="Path 195" d="M161.588,614.958a12.434,12.434,0,0,1-1.272,5.773,8.623,8.623,0,0,1-3.749,3.752,13.239,13.239,0,0,1-6.176,1.3,13.029,13.029,0,0,1-6.105-1.3,8.81,8.81,0,0,1-3.782-3.752,12.136,12.136,0,0,1-1.3-5.773V589.681H127.768V615.5a20.032,20.032,0,0,0,2.848,10.767,19.337,19.337,0,0,0,7.923,7.166,28.664,28.664,0,0,0,23.715,0,19.18,19.18,0,0,0,7.894-7.166,20.239,20.239,0,0,0,2.815-10.767V589.681H161.588Z" fill="#fff"/>
      <path id="Path_196" data-name="Path 196" d="M241.617,624.05l-14.942-34.373h-17.6v45.357h10.888V599.9l15.792,35.136h11.672l15.792-35.248v35.248h10.888V589.678H256.5Z" fill="#fff"/>
      <path id="Path_197" data-name="Path 197" d="M343.312,624.05l-14.942-34.373h-17.6v45.357h10.888V599.9l15.792,35.136h11.672l15.792-35.248v35.248H375.8V589.678H358.2Z" fill="#fff"/>
      <rect id="Rectangle_2" data-name="Rectangle 2" width="11.43" height="45.352" transform="translate(412.47 589.681)" fill="#fff"/>
      <path id="Path_198" data-name="Path 198" d="M504,589.679H457.238v10.1H474.9v35.256h11.43V599.775H504Z" fill="#fff"/>
    </g>
  </g>
</svg>
