<?xml version="1.0" encoding="utf-8"?>
<!-- Generator: Adobe Illustrator 26.4.1, SVG Export Plug-In . SVG Version: 6.00 Build 0)  -->
<svg version="1.1" id="Layer_1" xmlns="http://www.w3.org/2000/svg" xmlns:xlink="http://www.w3.org/1999/xlink" x="0px" y="0px"
	 viewBox="0 0 44.909 56.693" style="enable-background:new 0 0 44.909 56.693;" xml:space="preserve">
<style type="text/css">
	.st0{fill:#FFFFFF;}
</style>
<g>
	<g>
		<path class="st0" d="M43.244,30.232c-0.535-0.192-1.018-0.209-1.452-0.053c-0.557,0.2-1.156-0.141-1.156-0.72v-1.876
			c0-0.339-0.214-0.646-0.541-0.762c-0.36-0.128-0.693-0.304-0.999-0.527c-0.251-0.181-0.46-0.378-0.621-0.599v23.344
			c0,0.455,0.378,0.823,0.846,0.823h0.469c0.467,0,0.846-0.368,0.846-0.823V33.183c0-0.674,0.352-1.011,1.056-1.011
			c0.705-0.012,1.057,0.325,1.057,1.011v15.856c0,0.455,0.378,0.823,0.846,0.823h0.469c0.467,0,0.846-0.368,0.846-0.823V33.183
			C44.909,31.609,44.353,30.628,43.244,30.232"/>
		<path class="st0" d="M36.381,33.209v-0.457c0-0.454-0.379-0.823-0.846-0.823H32.93c-0.467,0-0.846-0.369-0.846-0.823v-3.52
			c0-0.338-0.213-0.643-0.538-0.761c-0.351-0.128-0.68-0.301-0.983-0.519c-0.257-0.18-0.471-0.383-0.639-0.611v21.081
			c0,0.977,0.34,1.743,1.008,2.307c0.597,0.523,1.331,0.778,2.208,0.778c0.878,0,1.617-0.256,2.209-0.778
			c0.674-0.564,1.015-1.33,1.015-2.307v-5.462c0-0.455-0.379-0.823-0.846-0.823h-0.475c-0.467,0-0.846,0.368-0.846,0.823v5.462
			c0,0.669-0.352,1.006-1.057,1.006c-0.704,0-1.056-0.337-1.056-1.006V34.855c0-0.455,0.378-0.823,0.846-0.823h2.606
			C36.002,34.032,36.381,33.663,36.381,33.209"/>
		<path class="st0" d="M1.316,35.463h-0.47C0.379,35.463,0,35.094,0,34.865V4.891C0,4.21,0.379,3.842,0.846,3.842h0.47
			c0.467,0,0.846,0.368,0.846,0.823v0.023c0.673-1.006,1.542-1.311,2.607-0.915C5.88,4.169,6.436,5.145,6.436,6.7v16.047
			c0,1.585-0.556,2.576-1.667,2.973c-0.532,0.19-1.016,0.206-1.451,0.045c-0.556-0.204-1.157,0.135-1.157,0.714v8.16
			C2.161,35.094,1.783,35.463,1.316,35.463 M2.161,22.77c0,0.759,0.451,1.089,1.353,0.989c0.43-0.048,0.761-0.4,0.761-0.822V6.7
			c0-0.672-0.352-1.007-1.057-1.007S2.161,6.029,2.161,6.7V22.77z"/>
		<path class="st0" d="M9.865,25.875h-0.47c-0.467,0-0.846-0.369-0.846-0.823V0.823C8.55,0.368,8.929,0,9.396,0h0.47
			c0.467,0,0.846,0.368,0.846,0.823v24.228C10.711,25.506,10.333,25.875,9.865,25.875"/>
		<path class="st0" d="M17.1,11.521h0.023V6.652c0-0.671-0.36-1.006-1.08-1.006c-0.705,0-1.057,0.335-1.057,1.006v2.241
			c0,0.454-0.378,0.823-0.846,0.823h-0.47c-0.467,0-0.846-0.368-0.846-0.823V6.652c0-0.945,0.337-1.707,1.01-2.286
			c0.595-0.519,1.331-0.747,2.209-0.762c0.877-0.015,1.613,0.198,2.207,0.716c0.674,0.564,1.01,1.341,1.01,2.332v18.13
			c0,0.455-0.378,0.823-0.846,0.823h-0.446c-0.467,0-0.846-0.368-0.846-0.823c-0.674,1.021-1.55,1.327-2.631,0.915
			c-1.112-0.427-1.668-1.41-1.668-2.949v-6.014c0-2.164,1.018-3.551,3.054-4.161C16.692,12.344,17.1,11.994,17.1,11.521
			 M17.1,14.265c-0.125,0.045-0.329,0.107-0.611,0.182c-1.003,0.306-1.504,1.021-1.504,2.15v6.012c0,0.672,0.353,1.007,1.057,1.007
			c0.704,0.015,1.057-0.321,1.057-1.007V14.265z"/>
		<path class="st0" d="M22.69,25.874h-0.47c-0.467,0-0.846-0.369-0.846-0.823V4.674c0-0.455,0.378-0.823,0.846-0.823h0.47
			c0.467,0,0.846,0.368,0.846,0.823v0.023c0.673-1.006,1.542-1.318,2.607-0.938c1.112,0.396,1.668,1.38,1.668,2.95v18.342
			c0,0.454-0.379,0.823-0.846,0.823h-0.47c-0.467,0-0.846-0.369-0.846-0.823V6.709c0-0.687-0.353-1.022-1.057-1.006
			c-0.705,0-1.057,0.335-1.057,1.006v18.342C23.536,25.505,23.157,25.874,22.69,25.874"/>
		<path class="st0" d="M35.045,17.644h0.47c0.467,0,0.846,0.368,0.846,0.823v4.321c0,0.991-0.337,1.768-1.01,2.332
			c-0.595,0.503-1.331,0.755-2.208,0.755c-0.861-0.016-1.597-0.282-2.208-0.8c-0.673-0.564-1.01-1.327-1.01-2.287V6.692
			c0-0.945,0.337-1.707,1.01-2.286c0.611-0.519,1.347-0.785,2.208-0.801c0.877,0,1.613,0.252,2.208,0.754
			c0.673,0.564,1.01,1.342,1.01,2.332v8.277c0,0.454-0.379,0.823-0.846,0.823h-2.583c-0.467,0-0.846,0.368-0.846,0.823v6.173
			c0,0.671,0.352,1.006,1.057,1.006c0.705,0.016,1.057-0.32,1.057-1.006v-4.321C34.199,18.012,34.578,17.644,35.045,17.644
			 M32.931,13.688h0.423c0.467,0,0.846-0.369,0.846-0.823V6.692c0-0.686-0.352-1.021-1.057-1.006c-0.705,0-1.057,0.335-1.057,1.006
			v6.173C32.085,13.319,32.464,13.688,32.931,13.688"/>
		<path class="st0" d="M9.396,41.631h0.47c0.467,0,0.846,0.368,0.846,0.823v4.321c0,0.99-0.337,1.768-1.01,2.332
			c-0.595,0.503-1.331,0.755-2.208,0.755c-0.861-0.016-1.597-0.282-2.208-0.801c-0.673-0.564-1.01-1.326-1.01-2.286V30.679
			c0-0.945,0.337-1.707,1.01-2.286c0.611-0.518,1.347-0.785,2.208-0.8c0.877,0,1.613,0.251,2.208,0.754
			c0.673,0.564,1.01,1.341,1.01,2.332v8.276c0,0.455-0.378,0.823-0.846,0.823H7.282c-0.467,0-0.846,0.369-0.846,0.823v6.173
			c0,0.67,0.353,1.006,1.057,1.006c0.705,0.016,1.057-0.32,1.057-1.006v-4.321C8.55,41.998,8.929,41.631,9.396,41.631 M7.282,37.675
			h0.423c0.467,0,0.846-0.368,0.846-0.823v-6.173c0-0.686-0.352-1.021-1.057-1.006c-0.704,0-1.057,0.336-1.057,1.006v6.173
			C6.436,37.306,6.815,37.675,7.282,37.675"/>
		<path class="st0" d="M17.1,35.509h0.023V30.68c0-0.671-0.36-1.006-1.08-1.006c-0.705,0-1.057,0.335-1.057,1.006v2.241
			c0,0.454-0.378,0.823-0.846,0.823h-0.47c-0.467,0-0.846-0.369-0.846-0.823V30.68c0-0.945,0.337-1.707,1.01-2.286
			c0.595-0.518,1.331-0.785,2.209-0.8c0.877-0.015,1.613,0.236,2.207,0.755c0.674,0.564,1.01,1.341,1.01,2.332v18.09
			c0,0.455-0.378,0.823-0.846,0.823h-0.446c-0.467,0-0.846-0.368-0.846-0.823c-0.674,1.021-1.55,1.326-2.631,0.915
			c-1.112-0.428-1.668-1.41-1.668-2.949v-6.014c0-2.164,1.018-3.551,3.054-4.161C16.692,36.332,17.1,35.981,17.1,35.509
			 M17.1,38.252c-0.125,0.046-0.329,0.107-0.611,0.183c-1.003,0.305-1.504,1.021-1.504,2.149v6.013c0,0.671,0.353,1.006,1.057,1.006
			c0.704,0.015,1.057-0.32,1.057-1.006V38.252z"/>
		<path class="st0" d="M22.69,49.862h-0.47c-0.467,0-0.846-0.369-0.846-0.823V28.629c0-0.454,0.378-0.823,0.846-0.823h0.47
			c0.467,0,0.846,0.369,0.846,0.823v0.046c0.673-1.006,1.542-1.311,2.607-0.914c1.112,0.411,1.668,1.394,1.668,2.949v1.478
			c0,0.454-0.379,0.823-0.846,0.823h-0.47c-0.467,0-0.846-0.369-0.846-0.823v-1.668c0-0.422-0.331-0.775-0.761-0.822
			c-0.902-0.1-1.353,0.229-1.353,0.988v18.352C23.536,49.493,23.157,49.862,22.69,49.862"/>
		<path class="st0" d="M40.611,22.788c0,0.67,0.353,1.006,1.057,1.006c0.705,0,1.057-0.335,1.057-1.006v-5.465
			c0-0.454,0.379-0.823,0.846-0.823h0.47c0.467,0,0.846,0.368,0.846,0.823v5.465c0,0.975-0.336,1.745-1.01,2.309
			c-0.595,0.518-1.331,0.777-2.208,0.777c-0.877,0-1.613-0.259-2.208-0.777c-0.673-0.564-1.01-1.334-1.01-2.309V0.823
			C38.45,0.369,38.829,0,39.296,0h0.47c0.467,0,0.846,0.369,0.846,0.823v6.295c0,0.455,0.379,0.823,0.846,0.823h2.607
			c0.467,0,0.845,0.368,0.845,0.823v0.457c0,0.455-0.378,0.823-0.845,0.823h-2.607c-0.467,0-0.846,0.368-0.846,0.823V22.788z"/>
	</g>
	<g>
		<path class="st0" d="M7.736,54.386C7.509,54.3,7.207,54.237,6.83,54.197l-0.825-0.092c-0.244-0.029-0.414-0.074-0.509-0.135
			c-0.095-0.061-0.143-0.145-0.143-0.253c0-0.144,0.08-0.254,0.24-0.332c0.16-0.077,0.375-0.116,0.644-0.116
			c0.201,0,0.373,0.023,0.515,0.068c0.142,0.045,0.255,0.106,0.34,0.183c0.085,0.077,0.134,0.17,0.148,0.278h1.03
			c-0.014-0.262-0.11-0.492-0.286-0.69c-0.176-0.197-0.412-0.352-0.707-0.463c-0.295-0.111-0.634-0.167-1.019-0.167
			c-0.388,0-0.727,0.05-1.016,0.151c-0.289,0.101-0.514,0.246-0.674,0.436c-0.16,0.191-0.24,0.421-0.24,0.69
			c0,0.341,0.121,0.611,0.364,0.808c0.243,0.198,0.635,0.324,1.178,0.377l0.782,0.081c0.27,0.029,0.454,0.074,0.553,0.137
			c0.098,0.063,0.148,0.152,0.148,0.267c0,0.151-0.085,0.268-0.256,0.351c-0.171,0.083-0.405,0.124-0.704,0.124
			c-0.208,0-0.391-0.025-0.547-0.076c-0.156-0.05-0.281-0.122-0.375-0.216c-0.093-0.093-0.149-0.201-0.167-0.323h-1.03
			c0.011,0.28,0.105,0.526,0.283,0.736s0.422,0.375,0.733,0.493c0.311,0.119,0.673,0.178,1.086,0.178
			c0.399,0,0.748-0.058,1.049-0.172c0.3-0.115,0.534-0.276,0.701-0.483c0.167-0.207,0.25-0.448,0.25-0.725
			c0-0.23-0.05-0.421-0.151-0.572S7.962,54.472,7.736,54.386z"/>
		<path class="st0" d="M14.398,54.817c0,0.198-0.038,0.369-0.113,0.515c-0.075,0.145-0.187,0.257-0.334,0.334
			c-0.147,0.077-0.331,0.116-0.55,0.116c-0.216,0-0.397-0.039-0.544-0.116c-0.147-0.077-0.26-0.189-0.337-0.334
			c-0.077-0.146-0.116-0.317-0.116-0.515v-2.253h-1.019v2.302c0,0.367,0.085,0.687,0.254,0.96c0.168,0.273,0.404,0.486,0.706,0.639
			c0.302,0.153,0.654,0.229,1.056,0.229s0.755-0.076,1.057-0.229c0.302-0.153,0.536-0.366,0.703-0.639
			c0.167-0.273,0.251-0.593,0.251-0.96v-2.302h-1.013V54.817z"/>
		<polygon class="st0" points="21.529,55.628 20.198,52.564 18.63,52.564 18.63,56.607 19.6,56.607 19.6,53.475 21.007,56.607 
			22.047,56.607 23.454,53.465 23.454,56.607 24.424,56.607 24.424,52.564 22.856,52.564 		"/>
		<polygon class="st0" points="30.591,55.628 29.259,52.564 27.691,52.564 27.691,56.607 28.661,56.607 28.661,53.475 
			30.068,56.607 31.108,56.607 32.516,53.465 32.516,56.607 33.486,56.607 33.486,52.564 31.917,52.564 		"/>
		<rect x="36.753" y="52.564" class="st0" width="1.019" height="4.043"/>
		<polygon class="st0" points="44.909,52.564 40.742,52.564 40.742,53.464 42.316,53.464 42.316,56.607 43.334,56.607 
			43.334,53.464 44.909,53.464 		"/>
	</g>
</g>
</svg>
