<?xml version="1.0" encoding="utf-8"?>
<!-- Generator: Adobe Illustrator 26.4.1, SVG Export Plug-In . SVG Version: 6.00 Build 0)  -->
<svg version="1.1" id="Layer_1" xmlns="http://www.w3.org/2000/svg" xmlns:xlink="http://www.w3.org/1999/xlink" x="0px" y="0px"
	 viewBox="0 0 70.866 70.866" style="enable-background:new 0 0 70.866 70.866;" xml:space="preserve">
<style type="text/css">
	.st0{fill:#FFFFFF;}
	.st1{fill:none;}
</style>
<g>
	<path class="st0" d="M58.866,70.866H12c-6.6,0-12-5.4-12-12V12C0,5.4,5.4,0,12,0h46.866c6.6,0,12,5.4,12,12v46.866
		C70.866,65.466,65.466,70.866,58.866,70.866z"/>
	<g transform="translate(70,70)">
		<g transform="translate(315,0) scale(0.35,0.35)">
			<g transform="">
				<rect x="-1029.483" y="-179.753" width="5.586" height="5.586"/>
			</g>
		</g>
		<g transform="translate(350,0) scale(0.35,0.35)">
			<g transform="">
				<rect x="-1123.897" y="-179.753" width="5.586" height="5.586"/>
			</g>
		</g>
		<g transform="translate(420,0) scale(0.35,0.35)">
			<g transform="">
				<rect x="-1312.726" y="-179.753" width="5.586" height="5.586"/>
			</g>
		</g>
		<g transform="translate(490,0) scale(0.35,0.35)">
			<g transform="">
				<rect x="-1501.555" y="-179.753" width="5.586" height="5.586"/>
			</g>
		</g>
		<g transform="translate(595,0) scale(0.35,0.35)">
			<g transform="">
				<rect x="-1784.799" y="-179.753" width="5.586" height="5.586"/>
			</g>
		</g>
		<g transform="translate(630,0) scale(0.35,0.35)">
			<g transform="">
				<rect x="-1879.213" y="-179.753" width="5.586" height="5.586"/>
			</g>
		</g>
		<g transform="translate(665,0) scale(0.35,0.35)">
			<g transform="">
				<rect x="-1973.628" y="-179.753" width="5.586" height="5.586"/>
			</g>
		</g>
		<g transform="translate(315,35) scale(0.35,0.35)">
			<g transform="">
				<rect x="-1029.483" y="-274.167" width="5.586" height="5.586"/>
			</g>
		</g>
		<g transform="translate(350,35) scale(0.35,0.35)">
			<g transform="">
				<rect x="-1123.897" y="-274.167" width="5.586" height="5.586"/>
			</g>
		</g>
		<g transform="translate(560,35) scale(0.35,0.35)">
			<g transform="">
				<rect x="-1690.384" y="-274.167" width="5.586" height="5.586"/>
			</g>
		</g>
		<g transform="translate(595,35) scale(0.35,0.35)">
			<g transform="">
				<rect x="-1784.799" y="-274.167" width="5.586" height="5.586"/>
			</g>
		</g>
		<g transform="translate(315,70) scale(0.35,0.35)">
			<g transform="">
				<rect x="-1029.483" y="-368.582" width="5.586" height="5.586"/>
			</g>
		</g>
		<g transform="translate(385,70) scale(0.35,0.35)">
			<g transform="">
				<rect x="-1218.312" y="-368.582" width="5.586" height="5.586"/>
			</g>
		</g>
		<g transform="translate(420,70) scale(0.35,0.35)">
			<g transform="">
				<rect x="-1312.726" y="-368.582" width="5.586" height="5.586"/>
			</g>
		</g>
		<g transform="translate(490,70) scale(0.35,0.35)">
			<g transform="">
				<rect x="-1501.555" y="-368.582" width="5.586" height="5.586"/>
			</g>
		</g>
		<g transform="translate(525,70) scale(0.35,0.35)">
			<g transform="">
				<rect x="-1595.97" y="-368.582" width="5.586" height="5.586"/>
			</g>
		</g>
		<g transform="translate(595,70) scale(0.35,0.35)">
			<g transform="">
				<rect x="-1784.799" y="-368.582" width="5.586" height="5.586"/>
			</g>
		</g>
		<g transform="translate(630,70) scale(0.35,0.35)">
			<g transform="">
				<rect x="-1879.213" y="-368.582" width="5.586" height="5.586"/>
			</g>
		</g>
		<g transform="translate(700,70) scale(0.35,0.35)">
			<g transform="">
				<rect x="-2068.042" y="-368.582" width="5.586" height="5.586"/>
			</g>
		</g>
		<g transform="translate(350,105) scale(0.35,0.35)">
			<g transform="">
				<rect x="-1123.897" y="-462.996" width="5.586" height="5.586"/>
			</g>
		</g>
		<g transform="translate(385,105) scale(0.35,0.35)">
			<g transform="">
				<rect x="-1218.312" y="-462.996" width="5.586" height="5.586"/>
			</g>
		</g>
		<g transform="translate(455,105) scale(0.35,0.35)">
			<g transform="">
				<rect x="-1407.141" y="-462.996" width="5.586" height="5.586"/>
			</g>
		</g>
		<g transform="translate(560,105) scale(0.35,0.35)">
			<g transform="">
				<rect x="-1690.384" y="-462.996" width="5.586" height="5.586"/>
			</g>
		</g>
		<g transform="translate(630,105) scale(0.35,0.35)">
			<g transform="">
				<rect x="-1879.213" y="-462.996" width="5.586" height="5.586"/>
			</g>
		</g>
		<g transform="translate(665,105) scale(0.35,0.35)">
			<g transform="">
				<rect x="-1973.628" y="-462.996" width="5.586" height="5.586"/>
			</g>
		</g>
		<g transform="translate(700,105) scale(0.35,0.35)">
			<g transform="">
				<rect x="-2068.042" y="-462.996" width="5.586" height="5.586"/>
			</g>
		</g>
		<g transform="translate(280,175) scale(0.35,0.35)">
			<g transform="">
				<rect x="-935.068" y="-651.825" width="5.586" height="5.586"/>
			</g>
		</g>
		<g transform="translate(315,175) scale(0.35,0.35)">
			<g transform="">
				<rect x="-1029.483" y="-651.825" width="5.586" height="5.586"/>
			</g>
		</g>
		<g transform="translate(420,175) scale(0.35,0.35)">
			<g transform="">
				<rect x="-1312.726" y="-651.825" width="5.586" height="5.586"/>
			</g>
		</g>
		<g transform="translate(525,175) scale(0.35,0.35)">
			<g transform="">
				<rect x="-1595.97" y="-651.825" width="5.586" height="5.586"/>
			</g>
		</g>
		<g transform="translate(560,175) scale(0.35,0.35)">
			<g transform="">
				<rect x="-1690.384" y="-651.825" width="5.586" height="5.586"/>
			</g>
		</g>
		<g transform="translate(595,175) scale(0.35,0.35)">
			<g transform="">
				<rect x="-1784.799" y="-651.825" width="5.586" height="5.586"/>
			</g>
		</g>
		<g transform="translate(665,175) scale(0.35,0.35)">
			<g transform="">
				<rect x="-1973.628" y="-651.825" width="5.586" height="5.586"/>
			</g>
		</g>
		<g transform="translate(700,175) scale(0.35,0.35)">
			<g transform="">
				<rect x="-2068.042" y="-651.825" width="5.586" height="5.586"/>
			</g>
		</g>
		<g transform="translate(280,210) scale(0.35,0.35)">
			<g transform="">
				<rect x="-935.068" y="-746.24" width="5.586" height="5.586"/>
			</g>
		</g>
		<g transform="translate(350,210) scale(0.35,0.35)">
			<g transform="">
				<rect x="-1123.897" y="-746.24" width="5.586" height="5.586"/>
			</g>
		</g>
		<g transform="translate(420,210) scale(0.35,0.35)">
			<g transform="">
				<rect x="-1312.726" y="-746.24" width="5.586" height="5.586"/>
			</g>
		</g>
		<g transform="translate(490,210) scale(0.35,0.35)">
			<g transform="">
				<rect x="-1501.555" y="-746.24" width="5.586" height="5.586"/>
			</g>
		</g>
		<g transform="translate(560,210) scale(0.35,0.35)">
			<g transform="">
				<rect x="-1690.384" y="-746.24" width="5.586" height="5.586"/>
			</g>
		</g>
		<g transform="translate(630,210) scale(0.35,0.35)">
			<g transform="">
				<rect x="-1879.213" y="-746.24" width="5.586" height="5.586"/>
			</g>
		</g>
		<g transform="translate(700,210) scale(0.35,0.35)">
			<g transform="">
				<rect x="-2068.042" y="-746.24" width="5.586" height="5.586"/>
			</g>
		</g>
		<g transform="translate(315,245) scale(0.35,0.35)">
			<g transform="">
				<rect x="-1029.483" y="-840.654" width="5.586" height="5.586"/>
			</g>
		</g>
		<g transform="translate(455,245) scale(0.35,0.35)">
			<g transform="">
				<rect x="-1407.141" y="-840.654" width="5.586" height="5.586"/>
			</g>
		</g>
		<g transform="translate(525,245) scale(0.35,0.35)">
			<g transform="">
				<rect x="-1595.97" y="-840.654" width="5.586" height="5.586"/>
			</g>
		</g>
		<g transform="translate(560,245) scale(0.35,0.35)">
			<g transform="">
				<rect x="-1690.384" y="-840.654" width="5.586" height="5.586"/>
			</g>
		</g>
		<g transform="translate(595,245) scale(0.35,0.35)">
			<g transform="">
				<rect x="-1784.799" y="-840.654" width="5.586" height="5.586"/>
			</g>
		</g>
		<g transform="translate(630,245) scale(0.35,0.35)">
			<g transform="">
				<rect x="-1879.213" y="-840.654" width="5.586" height="5.586"/>
			</g>
		</g>
		<g transform="translate(665,245) scale(0.35,0.35)">
			<g transform="">
				<rect x="-1973.628" y="-840.654" width="5.586" height="5.586"/>
			</g>
		</g>
		<g transform="translate(0,280) scale(0.35,0.35)">
			<g transform="">
				<rect x="-179.753" y="-935.068" width="5.586" height="5.586"/>
			</g>
		</g>
		<g transform="translate(105,280) scale(0.35,0.35)">
			<g transform="">
				<rect x="-462.996" y="-935.068" width="5.586" height="5.586"/>
			</g>
		</g>
		<g transform="translate(175,280) scale(0.35,0.35)">
			<g transform="">
				<rect x="-651.825" y="-935.068" width="5.586" height="5.586"/>
			</g>
		</g>
		<g transform="translate(210,280) scale(0.35,0.35)">
			<g transform="">
				<rect x="-746.24" y="-935.068" width="5.586" height="5.586"/>
			</g>
		</g>
		<g transform="translate(280,280) scale(0.35,0.35)">
			<g transform="">
				<rect x="-935.068" y="-935.068" width="5.586" height="5.586"/>
			</g>
		</g>
		<g transform="translate(385,280) scale(0.35,0.35)">
			<g transform="">
				<rect x="-1218.312" y="-935.068" width="5.586" height="5.586"/>
			</g>
		</g>
		<g transform="translate(490,280) scale(0.35,0.35)">
			<g transform="">
				<rect x="-1501.555" y="-935.068" width="5.586" height="5.586"/>
			</g>
		</g>
		<g transform="translate(560,280) scale(0.35,0.35)">
			<g transform="">
				<rect x="-1690.384" y="-935.068" width="5.586" height="5.586"/>
			</g>
		</g>
		<g transform="translate(700,280) scale(0.35,0.35)">
			<g transform="">
				<rect x="-2068.042" y="-935.068" width="5.586" height="5.586"/>
			</g>
		</g>
		<g transform="translate(735,280) scale(0.35,0.35)">
			<g transform="">
				<rect x="-2162.457" y="-935.068" width="5.586" height="5.586"/>
			</g>
		</g>
		<g transform="translate(805,280) scale(0.35,0.35)">
			<g transform="">
				<rect x="-2351.286" y="-935.068" width="5.586" height="5.586"/>
			</g>
		</g>
		<g transform="translate(35,315) scale(0.35,0.35)">
			<g transform="">
				<rect x="-274.167" y="-1029.483" width="5.586" height="5.586"/>
			</g>
		</g>
		<g transform="translate(70,315) scale(0.35,0.35)">
			<g transform="">
				<rect x="-368.582" y="-1029.483" width="5.586" height="5.586"/>
			</g>
		</g>
		<g transform="translate(105,315) scale(0.35,0.35)">
			<g transform="">
				<rect x="-462.996" y="-1029.483" width="5.586" height="5.586"/>
			</g>
		</g>
		<g transform="translate(175,315) scale(0.35,0.35)">
			<g transform="">
				<rect x="-651.825" y="-1029.483" width="5.586" height="5.586"/>
			</g>
		</g>
		<g transform="translate(280,315) scale(0.35,0.35)">
			<g transform="">
				<rect x="-935.068" y="-1029.483" width="5.586" height="5.586"/>
			</g>
		</g>
		<g transform="translate(315,315) scale(0.35,0.35)">
			<g transform="">
				<rect x="-1029.483" y="-1029.483" width="5.586" height="5.586"/>
			</g>
		</g>
		<g transform="translate(420,315) scale(0.35,0.35)">
			<g transform="">
				<rect x="-1312.726" y="-1029.483" width="5.586" height="5.586"/>
			</g>
		</g>
		<g transform="translate(455,315) scale(0.35,0.35)">
			<g transform="">
				<rect x="-1407.141" y="-1029.483" width="5.586" height="5.586"/>
			</g>
		</g>
		<g transform="translate(525,315) scale(0.35,0.35)">
			<g transform="">
				<rect x="-1595.97" y="-1029.483" width="5.586" height="5.586"/>
			</g>
		</g>
		<g transform="translate(560,315) scale(0.35,0.35)">
			<g transform="">
				<rect x="-1690.384" y="-1029.483" width="5.586" height="5.586"/>
			</g>
		</g>
		<g transform="translate(595,315) scale(0.35,0.35)">
			<g transform="">
				<rect x="-1784.799" y="-1029.483" width="5.586" height="5.586"/>
			</g>
		</g>
		<g transform="translate(630,315) scale(0.35,0.35)">
			<g transform="">
				<rect x="-1879.213" y="-1029.483" width="5.586" height="5.586"/>
			</g>
		</g>
		<g transform="translate(700,315) scale(0.35,0.35)">
			<g transform="">
				<rect x="-2068.042" y="-1029.483" width="5.586" height="5.586"/>
			</g>
		</g>
		<g transform="translate(770,315) scale(0.35,0.35)">
			<g transform="">
				<rect x="-2256.871" y="-1029.483" width="5.586" height="5.586"/>
			</g>
		</g>
		<g transform="translate(875,315) scale(0.35,0.35)">
			<g transform="">
				<rect x="-2540.115" y="-1029.483" width="5.586" height="5.586"/>
			</g>
		</g>
		<g transform="translate(980,315) scale(0.35,0.35)">
			<g transform="">
				<rect x="-2823.358" y="-1029.483" width="5.586" height="5.586"/>
			</g>
		</g>
		<g transform="translate(35,350) scale(0.35,0.35)">
			<g transform="">
				<rect x="-274.167" y="-1123.897" width="5.586" height="5.586"/>
			</g>
		</g>
		<g transform="translate(105,350) scale(0.35,0.35)">
			<g transform="">
				<rect x="-462.996" y="-1123.897" width="5.586" height="5.586"/>
			</g>
		</g>
		<g transform="translate(210,350) scale(0.35,0.35)">
			<g transform="">
				<rect x="-746.24" y="-1123.897" width="5.586" height="5.586"/>
			</g>
		</g>
		<g transform="translate(245,350) scale(0.35,0.35)">
			<g transform="">
				<rect x="-840.654" y="-1123.897" width="5.586" height="5.586"/>
			</g>
		</g>
		<g transform="translate(350,350) scale(0.35,0.35)">
			<g transform="">
				<rect x="-1123.897" y="-1123.897" width="5.586" height="5.586"/>
			</g>
		</g>
		<g transform="translate(420,350) scale(0.35,0.35)">
			<g transform="">
				<rect x="-1312.726" y="-1123.897" width="5.586" height="5.586"/>
			</g>
		</g>
		<g transform="translate(455,350) scale(0.35,0.35)">
			<g transform="">
				<rect x="-1407.141" y="-1123.897" width="5.586" height="5.586"/>
			</g>
		</g>
		<g transform="translate(490,350) scale(0.35,0.35)">
			<g transform="">
				<rect x="-1501.555" y="-1123.897" width="5.586" height="5.586"/>
			</g>
		</g>
		<g transform="translate(525,350) scale(0.35,0.35)">
			<g transform="">
				<rect x="-1595.97" y="-1123.897" width="5.586" height="5.586"/>
			</g>
		</g>
		<g transform="translate(665,350) scale(0.35,0.35)">
			<g transform="">
				<rect x="-1973.628" y="-1123.897" width="5.586" height="5.586"/>
			</g>
		</g>
		<g transform="translate(875,350) scale(0.35,0.35)">
			<g transform="">
				<rect x="-2540.115" y="-1123.897" width="5.586" height="5.586"/>
			</g>
		</g>
		<g transform="translate(910,350) scale(0.35,0.35)">
			<g transform="">
				<rect x="-2634.529" y="-1123.897" width="5.586" height="5.586"/>
			</g>
		</g>
		<g transform="translate(945,350) scale(0.35,0.35)">
			<g transform="">
				<rect x="-2728.944" y="-1123.897" width="5.586" height="5.586"/>
			</g>
		</g>
		<g transform="translate(0,385) scale(0.35,0.35)">
			<g transform="">
				<rect x="-179.753" y="-1218.312" width="5.586" height="5.586"/>
			</g>
		</g>
		<g transform="translate(35,385) scale(0.35,0.35)">
			<g transform="">
				<rect x="-274.167" y="-1218.312" width="5.586" height="5.586"/>
			</g>
		</g>
		<g transform="translate(70,385) scale(0.35,0.35)">
			<g transform="">
				<rect x="-368.582" y="-1218.312" width="5.586" height="5.586"/>
			</g>
		</g>
		<g transform="translate(105,385) scale(0.35,0.35)">
			<g transform="">
				<rect x="-462.996" y="-1218.312" width="5.586" height="5.586"/>
			</g>
		</g>
		<g transform="translate(280,385) scale(0.35,0.35)">
			<g transform="">
				<rect x="-935.068" y="-1218.312" width="5.586" height="5.586"/>
			</g>
		</g>
		<g transform="translate(420,385) scale(0.35,0.35)">
			<g transform="">
				<rect x="-1312.726" y="-1218.312" width="5.586" height="5.586"/>
			</g>
		</g>
		<g transform="translate(455,385) scale(0.35,0.35)">
			<g transform="">
				<rect x="-1407.141" y="-1218.312" width="5.586" height="5.586"/>
			</g>
		</g>
		<g transform="translate(560,385) scale(0.35,0.35)">
			<g transform="">
				<rect x="-1690.384" y="-1218.312" width="5.586" height="5.586"/>
			</g>
		</g>
		<g transform="translate(630,385) scale(0.35,0.35)">
			<g transform="">
				<rect x="-1879.213" y="-1218.312" width="5.586" height="5.586"/>
			</g>
		</g>
		<g transform="translate(665,385) scale(0.35,0.35)">
			<g transform="">
				<rect x="-1973.628" y="-1218.312" width="5.586" height="5.586"/>
			</g>
		</g>
		<g transform="translate(700,385) scale(0.35,0.35)">
			<g transform="">
				<rect x="-2068.042" y="-1218.312" width="5.586" height="5.586"/>
			</g>
		</g>
		<g transform="translate(735,385) scale(0.35,0.35)">
			<g transform="">
				<rect x="-2162.457" y="-1218.312" width="5.586" height="5.586"/>
			</g>
		</g>
		<g transform="translate(805,385) scale(0.35,0.35)">
			<g transform="">
				<rect x="-2351.286" y="-1218.312" width="5.586" height="5.586"/>
			</g>
		</g>
		<g transform="translate(840,385) scale(0.35,0.35)">
			<g transform="">
				<rect x="-2445.7" y="-1218.312" width="5.586" height="5.586"/>
			</g>
		</g>
		<g transform="translate(910,385) scale(0.35,0.35)">
			<g transform="">
				<rect x="-2634.529" y="-1218.312" width="5.586" height="5.586"/>
			</g>
		</g>
		<g transform="translate(945,385) scale(0.35,0.35)">
			<g transform="">
				<rect x="-2728.944" y="-1218.312" width="5.586" height="5.586"/>
			</g>
		</g>
		<g transform="translate(0,420) scale(0.35,0.35)">
			<g transform="">
				<rect x="-179.753" y="-1312.726" width="5.586" height="5.586"/>
			</g>
		</g>
		<g transform="translate(70,420) scale(0.35,0.35)">
			<g transform="">
				<rect x="-368.582" y="-1312.726" width="5.586" height="5.586"/>
			</g>
		</g>
		<g transform="translate(105,420) scale(0.35,0.35)">
			<g transform="">
				<rect x="-462.996" y="-1312.726" width="5.586" height="5.586"/>
			</g>
		</g>
		<g transform="translate(140,420) scale(0.35,0.35)">
			<g transform="">
				<rect x="-557.411" y="-1312.726" width="5.586" height="5.586"/>
			</g>
		</g>
		<g transform="translate(175,420) scale(0.35,0.35)">
			<g transform="">
				<rect x="-651.825" y="-1312.726" width="5.586" height="5.586"/>
			</g>
		</g>
		<g transform="translate(210,420) scale(0.35,0.35)">
			<g transform="">
				<rect x="-746.24" y="-1312.726" width="5.586" height="5.586"/>
			</g>
		</g>
		<g transform="translate(245,420) scale(0.35,0.35)">
			<g transform="">
				<rect x="-840.654" y="-1312.726" width="5.586" height="5.586"/>
			</g>
		</g>
		<g transform="translate(280,420) scale(0.35,0.35)">
			<g transform="">
				<rect x="-935.068" y="-1312.726" width="5.586" height="5.586"/>
			</g>
		</g>
		<g transform="translate(315,420) scale(0.35,0.35)">
			<g transform="">
				<rect x="-1029.483" y="-1312.726" width="5.586" height="5.586"/>
			</g>
		</g>
		<g transform="translate(385,420) scale(0.35,0.35)">
			<g transform="">
				<rect x="-1218.312" y="-1312.726" width="5.586" height="5.586"/>
			</g>
		</g>
		<g transform="translate(420,420) scale(0.35,0.35)">
			<g transform="">
				<rect x="-1312.726" y="-1312.726" width="5.586" height="5.586"/>
			</g>
		</g>
		<g transform="translate(490,420) scale(0.35,0.35)">
			<g transform="">
				<rect x="-1501.555" y="-1312.726" width="5.586" height="5.586"/>
			</g>
		</g>
		<g transform="translate(525,420) scale(0.35,0.35)">
			<g transform="">
				<rect x="-1595.97" y="-1312.726" width="5.586" height="5.586"/>
			</g>
		</g>
		<g transform="translate(560,420) scale(0.35,0.35)">
			<g transform="">
				<rect x="-1690.384" y="-1312.726" width="5.586" height="5.586"/>
			</g>
		</g>
		<g transform="translate(595,420) scale(0.35,0.35)">
			<g transform="">
				<rect x="-1784.799" y="-1312.726" width="5.586" height="5.586"/>
			</g>
		</g>
		<g transform="translate(700,420) scale(0.35,0.35)">
			<g transform="">
				<rect x="-2068.042" y="-1312.726" width="5.586" height="5.586"/>
			</g>
		</g>
		<g transform="translate(735,420) scale(0.35,0.35)">
			<g transform="">
				<rect x="-2162.457" y="-1312.726" width="5.586" height="5.586"/>
			</g>
		</g>
		<g transform="translate(770,420) scale(0.35,0.35)">
			<g transform="">
				<rect x="-2256.871" y="-1312.726" width="5.586" height="5.586"/>
			</g>
		</g>
		<g transform="translate(875,420) scale(0.35,0.35)">
			<g transform="">
				<rect x="-2540.115" y="-1312.726" width="5.586" height="5.586"/>
			</g>
		</g>
		<g transform="translate(945,420) scale(0.35,0.35)">
			<g transform="">
				<rect x="-2728.944" y="-1312.726" width="5.586" height="5.586"/>
			</g>
		</g>
		<g transform="translate(980,420) scale(0.35,0.35)">
			<g transform="">
				<rect x="-2823.358" y="-1312.726" width="5.586" height="5.586"/>
			</g>
		</g>
		<g transform="translate(0,455) scale(0.35,0.35)">
			<g transform="">
				<rect x="-179.753" y="-1407.141" width="5.586" height="5.586"/>
			</g>
		</g>
		<g transform="translate(70,455) scale(0.35,0.35)">
			<g transform="">
				<rect x="-368.582" y="-1407.141" width="5.586" height="5.586"/>
			</g>
		</g>
		<g transform="translate(175,455) scale(0.35,0.35)">
			<g transform="">
				<rect x="-651.825" y="-1407.141" width="5.586" height="5.586"/>
			</g>
		</g>
		<g transform="translate(245,455) scale(0.35,0.35)">
			<g transform="">
				<rect x="-840.654" y="-1407.141" width="5.586" height="5.586"/>
			</g>
		</g>
		<g transform="translate(350,455) scale(0.35,0.35)">
			<g transform="">
				<rect x="-1123.897" y="-1407.141" width="5.586" height="5.586"/>
			</g>
		</g>
		<g transform="translate(385,455) scale(0.35,0.35)">
			<g transform="">
				<rect x="-1218.312" y="-1407.141" width="5.586" height="5.586"/>
			</g>
		</g>
		<g transform="translate(420,455) scale(0.35,0.35)">
			<g transform="">
				<rect x="-1312.726" y="-1407.141" width="5.586" height="5.586"/>
			</g>
		</g>
		<g transform="translate(455,455) scale(0.35,0.35)">
			<g transform="">
				<rect x="-1407.141" y="-1407.141" width="5.586" height="5.586"/>
			</g>
		</g>
		<g transform="translate(490,455) scale(0.35,0.35)">
			<g transform="">
				<rect x="-1501.555" y="-1407.141" width="5.586" height="5.586"/>
			</g>
		</g>
		<g transform="translate(525,455) scale(0.35,0.35)">
			<g transform="">
				<rect x="-1595.97" y="-1407.141" width="5.586" height="5.586"/>
			</g>
		</g>
		<g transform="translate(560,455) scale(0.35,0.35)">
			<g transform="">
				<rect x="-1690.384" y="-1407.141" width="5.586" height="5.586"/>
			</g>
		</g>
		<g transform="translate(665,455) scale(0.35,0.35)">
			<g transform="">
				<rect x="-1973.628" y="-1407.141" width="5.586" height="5.586"/>
			</g>
		</g>
		<g transform="translate(700,455) scale(0.35,0.35)">
			<g transform="">
				<rect x="-2068.042" y="-1407.141" width="5.586" height="5.586"/>
			</g>
		</g>
		<g transform="translate(735,455) scale(0.35,0.35)">
			<g transform="">
				<rect x="-2162.457" y="-1407.141" width="5.586" height="5.586"/>
			</g>
		</g>
		<g transform="translate(805,455) scale(0.35,0.35)">
			<g transform="">
				<rect x="-2351.286" y="-1407.141" width="5.586" height="5.586"/>
			</g>
		</g>
		<g transform="translate(35,490) scale(0.35,0.35)">
			<g transform="">
				<rect x="-274.167" y="-1501.555" width="5.586" height="5.586"/>
			</g>
		</g>
		<g transform="translate(70,490) scale(0.35,0.35)">
			<g transform="">
				<rect x="-368.582" y="-1501.555" width="5.586" height="5.586"/>
			</g>
		</g>
		<g transform="translate(175,490) scale(0.35,0.35)">
			<g transform="">
				<rect x="-651.825" y="-1501.555" width="5.586" height="5.586"/>
			</g>
		</g>
		<g transform="translate(210,490) scale(0.35,0.35)">
			<g transform="">
				<rect x="-746.24" y="-1501.555" width="5.586" height="5.586"/>
			</g>
		</g>
		<g transform="translate(280,490) scale(0.35,0.35)">
			<g transform="">
				<rect x="-935.068" y="-1501.555" width="5.586" height="5.586"/>
			</g>
		</g>
		<g transform="translate(350,490) scale(0.35,0.35)">
			<g transform="">
				<rect x="-1123.897" y="-1501.555" width="5.586" height="5.586"/>
			</g>
		</g>
		<g transform="translate(455,490) scale(0.35,0.35)">
			<g transform="">
				<rect x="-1407.141" y="-1501.555" width="5.586" height="5.586"/>
			</g>
		</g>
		<g transform="translate(490,490) scale(0.35,0.35)">
			<g transform="">
				<rect x="-1501.555" y="-1501.555" width="5.586" height="5.586"/>
			</g>
		</g>
		<g transform="translate(595,490) scale(0.35,0.35)">
			<g transform="">
				<rect x="-1784.799" y="-1501.555" width="5.586" height="5.586"/>
			</g>
		</g>
		<g transform="translate(700,490) scale(0.35,0.35)">
			<g transform="">
				<rect x="-2068.042" y="-1501.555" width="5.586" height="5.586"/>
			</g>
		</g>
		<g transform="translate(735,490) scale(0.35,0.35)">
			<g transform="">
				<rect x="-2162.457" y="-1501.555" width="5.586" height="5.586"/>
			</g>
		</g>
		<g transform="translate(875,490) scale(0.35,0.35)">
			<g transform="">
				<rect x="-2540.115" y="-1501.555" width="5.586" height="5.586"/>
			</g>
		</g>
		<g transform="translate(910,490) scale(0.35,0.35)">
			<g transform="">
				<rect x="-2634.529" y="-1501.555" width="5.586" height="5.586"/>
			</g>
		</g>
		<g transform="translate(945,490) scale(0.35,0.35)">
			<g transform="">
				<rect x="-2728.944" y="-1501.555" width="5.586" height="5.586"/>
			</g>
		</g>
		<g transform="translate(980,490) scale(0.35,0.35)">
			<g transform="">
				<rect x="-2823.358" y="-1501.555" width="5.586" height="5.586"/>
			</g>
		</g>
		<g transform="translate(105,525) scale(0.35,0.35)">
			<g transform="">
				<rect x="-462.996" y="-1595.97" width="5.586" height="5.586"/>
			</g>
		</g>
		<g transform="translate(140,525) scale(0.35,0.35)">
			<g transform="">
				<rect x="-557.411" y="-1595.97" width="5.586" height="5.586"/>
			</g>
		</g>
		<g transform="translate(175,525) scale(0.35,0.35)">
			<g transform="">
				<rect x="-651.825" y="-1595.97" width="5.586" height="5.586"/>
			</g>
		</g>
		<g transform="translate(315,525) scale(0.35,0.35)">
			<g transform="">
				<rect x="-1029.483" y="-1595.97" width="5.586" height="5.586"/>
			</g>
		</g>
		<g transform="translate(350,525) scale(0.35,0.35)">
			<g transform="">
				<rect x="-1123.897" y="-1595.97" width="5.586" height="5.586"/>
			</g>
		</g>
		<g transform="translate(420,525) scale(0.35,0.35)">
			<g transform="">
				<rect x="-1312.726" y="-1595.97" width="5.586" height="5.586"/>
			</g>
		</g>
		<g transform="translate(560,525) scale(0.35,0.35)">
			<g transform="">
				<rect x="-1690.384" y="-1595.97" width="5.586" height="5.586"/>
			</g>
		</g>
		<g transform="translate(595,525) scale(0.35,0.35)">
			<g transform="">
				<rect x="-1784.799" y="-1595.97" width="5.586" height="5.586"/>
			</g>
		</g>
		<g transform="translate(630,525) scale(0.35,0.35)">
			<g transform="">
				<rect x="-1879.213" y="-1595.97" width="5.586" height="5.586"/>
			</g>
		</g>
		<g transform="translate(665,525) scale(0.35,0.35)">
			<g transform="">
				<rect x="-1973.628" y="-1595.97" width="5.586" height="5.586"/>
			</g>
		</g>
		<g transform="translate(700,525) scale(0.35,0.35)">
			<g transform="">
				<rect x="-2068.042" y="-1595.97" width="5.586" height="5.586"/>
			</g>
		</g>
		<g transform="translate(735,525) scale(0.35,0.35)">
			<g transform="">
				<rect x="-2162.457" y="-1595.97" width="5.586" height="5.586"/>
			</g>
		</g>
		<g transform="translate(875,525) scale(0.35,0.35)">
			<g transform="">
				<rect x="-2540.115" y="-1595.97" width="5.586" height="5.586"/>
			</g>
		</g>
		<g transform="translate(945,525) scale(0.35,0.35)">
			<g transform="">
				<rect x="-2728.944" y="-1595.97" width="5.586" height="5.586"/>
			</g>
		</g>
		<g transform="translate(0,560) scale(0.35,0.35)">
			<g transform="">
				<rect x="-179.753" y="-1690.384" width="5.586" height="5.586"/>
			</g>
		</g>
		<g transform="translate(105,560) scale(0.35,0.35)">
			<g transform="">
				<rect x="-462.996" y="-1690.384" width="5.586" height="5.586"/>
			</g>
		</g>
		<g transform="translate(210,560) scale(0.35,0.35)">
			<g transform="">
				<rect x="-746.24" y="-1690.384" width="5.586" height="5.586"/>
			</g>
		</g>
		<g transform="translate(245,560) scale(0.35,0.35)">
			<g transform="">
				<rect x="-840.654" y="-1690.384" width="5.586" height="5.586"/>
			</g>
		</g>
		<g transform="translate(385,560) scale(0.35,0.35)">
			<g transform="">
				<rect x="-1218.312" y="-1690.384" width="5.586" height="5.586"/>
			</g>
		</g>
		<g transform="translate(420,560) scale(0.35,0.35)">
			<g transform="">
				<rect x="-1312.726" y="-1690.384" width="5.586" height="5.586"/>
			</g>
		</g>
		<g transform="translate(455,560) scale(0.35,0.35)">
			<g transform="">
				<rect x="-1407.141" y="-1690.384" width="5.586" height="5.586"/>
			</g>
		</g>
		<g transform="translate(525,560) scale(0.35,0.35)">
			<g transform="">
				<rect x="-1595.97" y="-1690.384" width="5.586" height="5.586"/>
			</g>
		</g>
		<g transform="translate(595,560) scale(0.35,0.35)">
			<g transform="">
				<rect x="-1784.799" y="-1690.384" width="5.586" height="5.586"/>
			</g>
		</g>
		<g transform="translate(665,560) scale(0.35,0.35)">
			<g transform="">
				<rect x="-1973.628" y="-1690.384" width="5.586" height="5.586"/>
			</g>
		</g>
		<g transform="translate(700,560) scale(0.35,0.35)">
			<g transform="">
				<rect x="-2068.042" y="-1690.384" width="5.586" height="5.586"/>
			</g>
		</g>
		<g transform="translate(735,560) scale(0.35,0.35)">
			<g transform="">
				<rect x="-2162.457" y="-1690.384" width="5.586" height="5.586"/>
			</g>
		</g>
		<g transform="translate(805,560) scale(0.35,0.35)">
			<g transform="">
				<rect x="-2351.286" y="-1690.384" width="5.586" height="5.586"/>
			</g>
		</g>
		<g transform="translate(945,560) scale(0.35,0.35)">
			<g transform="">
				<rect x="-2728.944" y="-1690.384" width="5.586" height="5.586"/>
			</g>
		</g>
		<g transform="translate(280,595) scale(0.35,0.35)">
			<g transform="">
				<rect x="-935.068" y="-1784.799" width="5.586" height="5.586"/>
			</g>
		</g>
		<g transform="translate(315,595) scale(0.35,0.35)">
			<g transform="">
				<rect x="-1029.483" y="-1784.799" width="5.586" height="5.586"/>
			</g>
		</g>
		<g transform="translate(420,595) scale(0.35,0.35)">
			<g transform="">
				<rect x="-1312.726" y="-1784.799" width="5.586" height="5.586"/>
			</g>
		</g>
		<g transform="translate(455,595) scale(0.35,0.35)">
			<g transform="">
				<rect x="-1407.141" y="-1784.799" width="5.586" height="5.586"/>
			</g>
		</g>
		<g transform="translate(490,595) scale(0.35,0.35)">
			<g transform="">
				<rect x="-1501.555" y="-1784.799" width="5.586" height="5.586"/>
			</g>
		</g>
		<g transform="translate(595,595) scale(0.35,0.35)">
			<g transform="">
				<rect x="-1784.799" y="-1784.799" width="5.586" height="5.586"/>
			</g>
		</g>
		<g transform="translate(735,595) scale(0.35,0.35)">
			<g transform="">
				<rect x="-2162.457" y="-1784.799" width="5.586" height="5.586"/>
			</g>
		</g>
		<g transform="translate(770,595) scale(0.35,0.35)">
			<g transform="">
				<rect x="-2256.871" y="-1784.799" width="5.586" height="5.586"/>
			</g>
		</g>
		<g transform="translate(805,595) scale(0.35,0.35)">
			<g transform="">
				<rect x="-2351.286" y="-1784.799" width="5.586" height="5.586"/>
			</g>
		</g>
		<g transform="translate(875,595) scale(0.35,0.35)">
			<g transform="">
				<rect x="-2540.115" y="-1784.799" width="5.586" height="5.586"/>
			</g>
		</g>
		<g transform="translate(980,595) scale(0.35,0.35)">
			<g transform="">
				<rect x="-2823.358" y="-1784.799" width="5.586" height="5.586"/>
			</g>
		</g>
		<g transform="translate(0,630) scale(0.35,0.35)">
			<g transform="">
				<rect x="-179.753" y="-1879.213" width="5.586" height="5.586"/>
			</g>
		</g>
		<g transform="translate(70,630) scale(0.35,0.35)">
			<g transform="">
				<rect x="-368.582" y="-1879.213" width="5.586" height="5.586"/>
			</g>
		</g>
		<g transform="translate(140,630) scale(0.35,0.35)">
			<g transform="">
				<rect x="-557.411" y="-1879.213" width="5.586" height="5.586"/>
			</g>
		</g>
		<g transform="translate(210,630) scale(0.35,0.35)">
			<g transform="">
				<rect x="-746.24" y="-1879.213" width="5.586" height="5.586"/>
			</g>
		</g>
		<g transform="translate(245,630) scale(0.35,0.35)">
			<g transform="">
				<rect x="-840.654" y="-1879.213" width="5.586" height="5.586"/>
			</g>
		</g>
		<g transform="translate(280,630) scale(0.35,0.35)">
			<g transform="">
				<rect x="-935.068" y="-1879.213" width="5.586" height="5.586"/>
			</g>
		</g>
		<g transform="translate(315,630) scale(0.35,0.35)">
			<g transform="">
				<rect x="-1029.483" y="-1879.213" width="5.586" height="5.586"/>
			</g>
		</g>
		<g transform="translate(385,630) scale(0.35,0.35)">
			<g transform="">
				<rect x="-1218.312" y="-1879.213" width="5.586" height="5.586"/>
			</g>
		</g>
		<g transform="translate(490,630) scale(0.35,0.35)">
			<g transform="">
				<rect x="-1501.555" y="-1879.213" width="5.586" height="5.586"/>
			</g>
		</g>
		<g transform="translate(700,630) scale(0.35,0.35)">
			<g transform="">
				<rect x="-2068.042" y="-1879.213" width="5.586" height="5.586"/>
			</g>
		</g>
		<g transform="translate(770,630) scale(0.35,0.35)">
			<g transform="">
				<rect x="-2256.871" y="-1879.213" width="5.586" height="5.586"/>
			</g>
		</g>
		<g transform="translate(805,630) scale(0.35,0.35)">
			<g transform="">
				<rect x="-2351.286" y="-1879.213" width="5.586" height="5.586"/>
			</g>
		</g>
		<g transform="translate(945,630) scale(0.35,0.35)">
			<g transform="">
				<rect x="-2728.944" y="-1879.213" width="5.586" height="5.586"/>
			</g>
		</g>
		<g transform="translate(980,630) scale(0.35,0.35)">
			<g transform="">
				<rect x="-2823.358" y="-1879.213" width="5.586" height="5.586"/>
			</g>
		</g>
		<g transform="translate(70,665) scale(0.35,0.35)">
			<g transform="">
				<rect x="-368.582" y="-1973.628" width="5.586" height="5.586"/>
			</g>
		</g>
		<g transform="translate(245,665) scale(0.35,0.35)">
			<g transform="">
				<rect x="-840.654" y="-1973.628" width="5.586" height="5.586"/>
			</g>
		</g>
		<g transform="translate(280,665) scale(0.35,0.35)">
			<g transform="">
				<rect x="-935.068" y="-1973.628" width="5.586" height="5.586"/>
			</g>
		</g>
		<g transform="translate(350,665) scale(0.35,0.35)">
			<g transform="">
				<rect x="-1123.897" y="-1973.628" width="5.586" height="5.586"/>
			</g>
		</g>
		<g transform="translate(420,665) scale(0.35,0.35)">
			<g transform="">
				<rect x="-1312.726" y="-1973.628" width="5.586" height="5.586"/>
			</g>
		</g>
		<g transform="translate(490,665) scale(0.35,0.35)">
			<g transform="">
				<rect x="-1501.555" y="-1973.628" width="5.586" height="5.586"/>
			</g>
		</g>
		<g transform="translate(525,665) scale(0.35,0.35)">
			<g transform="">
				<rect x="-1595.97" y="-1973.628" width="5.586" height="5.586"/>
			</g>
		</g>
		<g transform="translate(595,665) scale(0.35,0.35)">
			<g transform="">
				<rect x="-1784.799" y="-1973.628" width="5.586" height="5.586"/>
			</g>
		</g>
		<g transform="translate(630,665) scale(0.35,0.35)">
			<g transform="">
				<rect x="-1879.213" y="-1973.628" width="5.586" height="5.586"/>
			</g>
		</g>
		<g transform="translate(700,665) scale(0.35,0.35)">
			<g transform="">
				<rect x="-2068.042" y="-1973.628" width="5.586" height="5.586"/>
			</g>
		</g>
		<g transform="translate(770,665) scale(0.35,0.35)">
			<g transform="">
				<rect x="-2256.871" y="-1973.628" width="5.586" height="5.586"/>
			</g>
		</g>
		<g transform="translate(945,665) scale(0.35,0.35)">
			<g transform="">
				<rect x="-2728.944" y="-1973.628" width="5.586" height="5.586"/>
			</g>
		</g>
		<g transform="translate(980,665) scale(0.35,0.35)">
			<g transform="">
				<rect x="-2823.358" y="-1973.628" width="5.586" height="5.586"/>
			</g>
		</g>
		<g transform="translate(0,700) scale(0.35,0.35)">
			<g transform="">
				<rect x="-179.753" y="-2068.042" width="5.586" height="5.586"/>
			</g>
		</g>
		<g transform="translate(70,700) scale(0.35,0.35)">
			<g transform="">
				<rect x="-368.582" y="-2068.042" width="5.586" height="5.586"/>
			</g>
		</g>
		<g transform="translate(140,700) scale(0.35,0.35)">
			<g transform="">
				<rect x="-557.411" y="-2068.042" width="5.586" height="5.586"/>
			</g>
		</g>
		<g transform="translate(175,700) scale(0.35,0.35)">
			<g transform="">
				<rect x="-651.825" y="-2068.042" width="5.586" height="5.586"/>
			</g>
		</g>
		<g transform="translate(210,700) scale(0.35,0.35)">
			<g transform="">
				<rect x="-746.24" y="-2068.042" width="5.586" height="5.586"/>
			</g>
		</g>
		<g transform="translate(280,700) scale(0.35,0.35)">
			<g transform="">
				<rect x="-935.068" y="-2068.042" width="5.586" height="5.586"/>
			</g>
		</g>
		<g transform="translate(315,700) scale(0.35,0.35)">
			<g transform="">
				<rect x="-1029.483" y="-2068.042" width="5.586" height="5.586"/>
			</g>
		</g>
		<g transform="translate(350,700) scale(0.35,0.35)">
			<g transform="">
				<rect x="-1123.897" y="-2068.042" width="5.586" height="5.586"/>
			</g>
		</g>
		<g transform="translate(700,700) scale(0.35,0.35)">
			<g transform="">
				<rect x="-2068.042" y="-2068.042" width="5.586" height="5.586"/>
			</g>
		</g>
		<g transform="translate(735,700) scale(0.35,0.35)">
			<g transform="">
				<rect x="-2162.457" y="-2068.042" width="5.586" height="5.586"/>
			</g>
		</g>
		<g transform="translate(770,700) scale(0.35,0.35)">
			<g transform="">
				<rect x="-2256.871" y="-2068.042" width="5.586" height="5.586"/>
			</g>
		</g>
		<g transform="translate(805,700) scale(0.35,0.35)">
			<g transform="">
				<rect x="-2351.286" y="-2068.042" width="5.586" height="5.586"/>
			</g>
		</g>
		<g transform="translate(840,700) scale(0.35,0.35)">
			<g transform="">
				<rect x="-2445.7" y="-2068.042" width="5.586" height="5.586"/>
			</g>
		</g>
		<g transform="translate(910,700) scale(0.35,0.35)">
			<g transform="">
				<rect x="-2634.529" y="-2068.042" width="5.586" height="5.586"/>
			</g>
		</g>
		<g transform="translate(280,735) scale(0.35,0.35)">
			<g transform="">
				<rect x="-935.068" y="-2162.457" width="5.586" height="5.586"/>
			</g>
		</g>
		<g transform="translate(315,735) scale(0.35,0.35)">
			<g transform="">
				<rect x="-1029.483" y="-2162.457" width="5.586" height="5.586"/>
			</g>
		</g>
		<g transform="translate(350,735) scale(0.35,0.35)">
			<g transform="">
				<rect x="-1123.897" y="-2162.457" width="5.586" height="5.586"/>
			</g>
		</g>
		<g transform="translate(420,735) scale(0.35,0.35)">
			<g transform="">
				<rect x="-1312.726" y="-2162.457" width="5.586" height="5.586"/>
			</g>
		</g>
		<g transform="translate(490,735) scale(0.35,0.35)">
			<g transform="">
				<rect x="-1501.555" y="-2162.457" width="5.586" height="5.586"/>
			</g>
		</g>
		<g transform="translate(560,735) scale(0.35,0.35)">
			<g transform="">
				<rect x="-1690.384" y="-2162.457" width="5.586" height="5.586"/>
			</g>
		</g>
		<g transform="translate(700,735) scale(0.35,0.35)">
			<g transform="">
				<rect x="-2068.042" y="-2162.457" width="5.586" height="5.586"/>
			</g>
		</g>
		<g transform="translate(840,735) scale(0.35,0.35)">
			<g transform="">
				<rect x="-2445.7" y="-2162.457" width="5.586" height="5.586"/>
			</g>
		</g>
		<g transform="translate(910,735) scale(0.35,0.35)">
			<g transform="">
				<rect x="-2634.529" y="-2162.457" width="5.586" height="5.586"/>
			</g>
		</g>
		<g transform="translate(945,735) scale(0.35,0.35)">
			<g transform="">
				<rect x="-2728.944" y="-2162.457" width="5.586" height="5.586"/>
			</g>
		</g>
		<g transform="translate(980,735) scale(0.35,0.35)">
			<g transform="">
				<rect x="-2823.358" y="-2162.457" width="5.586" height="5.586"/>
			</g>
		</g>
		<g transform="translate(315,770) scale(0.35,0.35)">
			<g transform="">
				<rect x="-1029.483" y="-2256.871" width="5.586" height="5.586"/>
			</g>
		</g>
		<g transform="translate(385,770) scale(0.35,0.35)">
			<g transform="">
				<rect x="-1218.312" y="-2256.871" width="5.586" height="5.586"/>
			</g>
		</g>
		<g transform="translate(560,770) scale(0.35,0.35)">
			<g transform="">
				<rect x="-1690.384" y="-2256.871" width="5.586" height="5.586"/>
			</g>
		</g>
		<g transform="translate(630,770) scale(0.35,0.35)">
			<g transform="">
				<rect x="-1879.213" y="-2256.871" width="5.586" height="5.586"/>
			</g>
		</g>
		<g transform="translate(700,770) scale(0.35,0.35)">
			<g transform="">
				<rect x="-2068.042" y="-2256.871" width="5.586" height="5.586"/>
			</g>
		</g>
		<g transform="translate(770,770) scale(0.35,0.35)">
			<g transform="">
				<rect x="-2256.871" y="-2256.871" width="5.586" height="5.586"/>
			</g>
		</g>
		<g transform="translate(840,770) scale(0.35,0.35)">
			<g transform="">
				<rect x="-2445.7" y="-2256.871" width="5.586" height="5.586"/>
			</g>
		</g>
		<g transform="translate(945,770) scale(0.35,0.35)">
			<g transform="">
				<rect x="-2728.944" y="-2256.871" width="5.586" height="5.586"/>
			</g>
		</g>
		<g transform="translate(280,805) scale(0.35,0.35)">
			<g transform="">
				<rect x="-935.068" y="-2351.286" width="5.586" height="5.586"/>
			</g>
		</g>
		<g transform="translate(315,805) scale(0.35,0.35)">
			<g transform="">
				<rect x="-1029.483" y="-2351.286" width="5.586" height="5.586"/>
			</g>
		</g>
		<g transform="translate(490,805) scale(0.35,0.35)">
			<g transform="">
				<rect x="-1501.555" y="-2351.286" width="5.586" height="5.586"/>
			</g>
		</g>
		<g transform="translate(525,805) scale(0.35,0.35)">
			<g transform="">
				<rect x="-1595.97" y="-2351.286" width="5.586" height="5.586"/>
			</g>
		</g>
		<g transform="translate(560,805) scale(0.35,0.35)">
			<g transform="">
				<rect x="-1690.384" y="-2351.286" width="5.586" height="5.586"/>
			</g>
		</g>
		<g transform="translate(630,805) scale(0.35,0.35)">
			<g transform="">
				<rect x="-1879.213" y="-2351.286" width="5.586" height="5.586"/>
			</g>
		</g>
		<g transform="translate(700,805) scale(0.35,0.35)">
			<g transform="">
				<rect x="-2068.042" y="-2351.286" width="5.586" height="5.586"/>
			</g>
		</g>
		<g transform="translate(840,805) scale(0.35,0.35)">
			<g transform="">
				<rect x="-2445.7" y="-2351.286" width="5.586" height="5.586"/>
			</g>
		</g>
		<g transform="translate(875,805) scale(0.35,0.35)">
			<g transform="">
				<rect x="-2540.115" y="-2351.286" width="5.586" height="5.586"/>
			</g>
		</g>
		<g transform="translate(910,805) scale(0.35,0.35)">
			<g transform="">
				<rect x="-2634.529" y="-2351.286" width="5.586" height="5.586"/>
			</g>
		</g>
		<g transform="translate(350,840) scale(0.35,0.35)">
			<g transform="">
				<rect x="-1123.897" y="-2445.7" width="5.586" height="5.586"/>
			</g>
		</g>
		<g transform="translate(385,840) scale(0.35,0.35)">
			<g transform="">
				<rect x="-1218.312" y="-2445.7" width="5.586" height="5.586"/>
			</g>
		</g>
		<g transform="translate(420,840) scale(0.35,0.35)">
			<g transform="">
				<rect x="-1312.726" y="-2445.7" width="5.586" height="5.586"/>
			</g>
		</g>
		<g transform="translate(560,840) scale(0.35,0.35)">
			<g transform="">
				<rect x="-1690.384" y="-2445.7" width="5.586" height="5.586"/>
			</g>
		</g>
		<g transform="translate(595,840) scale(0.35,0.35)">
			<g transform="">
				<rect x="-1784.799" y="-2445.7" width="5.586" height="5.586"/>
			</g>
		</g>
		<g transform="translate(700,840) scale(0.35,0.35)">
			<g transform="">
				<rect x="-2068.042" y="-2445.7" width="5.586" height="5.586"/>
			</g>
		</g>
		<g transform="translate(735,840) scale(0.35,0.35)">
			<g transform="">
				<rect x="-2162.457" y="-2445.7" width="5.586" height="5.586"/>
			</g>
		</g>
		<g transform="translate(770,840) scale(0.35,0.35)">
			<g transform="">
				<rect x="-2256.871" y="-2445.7" width="5.586" height="5.586"/>
			</g>
		</g>
		<g transform="translate(805,840) scale(0.35,0.35)">
			<g transform="">
				<rect x="-2351.286" y="-2445.7" width="5.586" height="5.586"/>
			</g>
		</g>
		<g transform="translate(840,840) scale(0.35,0.35)">
			<g transform="">
				<rect x="-2445.7" y="-2445.7" width="5.586" height="5.586"/>
			</g>
		</g>
		<g transform="translate(980,840) scale(0.35,0.35)">
			<g transform="">
				<rect x="-2823.358" y="-2445.7" width="5.586" height="5.586"/>
			</g>
		</g>
		<g transform="translate(280,875) scale(0.35,0.35)">
			<g transform="">
				<rect x="-935.068" y="-2540.115" width="5.586" height="5.586"/>
			</g>
		</g>
		<g transform="translate(315,875) scale(0.35,0.35)">
			<g transform="">
				<rect x="-1029.483" y="-2540.115" width="5.586" height="5.586"/>
			</g>
		</g>
		<g transform="translate(420,875) scale(0.35,0.35)">
			<g transform="">
				<rect x="-1312.726" y="-2540.115" width="5.586" height="5.586"/>
			</g>
		</g>
		<g transform="translate(595,875) scale(0.35,0.35)">
			<g transform="">
				<rect x="-1784.799" y="-2540.115" width="5.586" height="5.586"/>
			</g>
		</g>
		<g transform="translate(630,875) scale(0.35,0.35)">
			<g transform="">
				<rect x="-1879.213" y="-2540.115" width="5.586" height="5.586"/>
			</g>
		</g>
		<g transform="translate(665,875) scale(0.35,0.35)">
			<g transform="">
				<rect x="-1973.628" y="-2540.115" width="5.586" height="5.586"/>
			</g>
		</g>
		<g transform="translate(770,875) scale(0.35,0.35)">
			<g transform="">
				<rect x="-2256.871" y="-2540.115" width="5.586" height="5.586"/>
			</g>
		</g>
		<g transform="translate(840,875) scale(0.35,0.35)">
			<g transform="">
				<rect x="-2445.7" y="-2540.115" width="5.586" height="5.586"/>
			</g>
		</g>
		<g transform="translate(875,875) scale(0.35,0.35)">
			<g transform="">
				<rect x="-2540.115" y="-2540.115" width="5.586" height="5.586"/>
			</g>
		</g>
		<g transform="translate(910,875) scale(0.35,0.35)">
			<g transform="">
				<rect x="-2634.529" y="-2540.115" width="5.586" height="5.586"/>
			</g>
		</g>
		<g transform="translate(945,875) scale(0.35,0.35)">
			<g transform="">
				<rect x="-2728.944" y="-2540.115" width="5.586" height="5.586"/>
			</g>
		</g>
		<g transform="translate(315,910) scale(0.35,0.35)">
			<g transform="">
				<rect x="-1029.483" y="-2634.529" width="5.586" height="5.586"/>
			</g>
		</g>
		<g transform="translate(350,910) scale(0.35,0.35)">
			<g transform="">
				<rect x="-1123.897" y="-2634.529" width="5.586" height="5.586"/>
			</g>
		</g>
		<g transform="translate(385,910) scale(0.35,0.35)">
			<g transform="">
				<rect x="-1218.312" y="-2634.529" width="5.586" height="5.586"/>
			</g>
		</g>
		<g transform="translate(420,910) scale(0.35,0.35)">
			<g transform="">
				<rect x="-1312.726" y="-2634.529" width="5.586" height="5.586"/>
			</g>
		</g>
		<g transform="translate(455,910) scale(0.35,0.35)">
			<g transform="">
				<rect x="-1407.141" y="-2634.529" width="5.586" height="5.586"/>
			</g>
		</g>
		<g transform="translate(560,910) scale(0.35,0.35)">
			<g transform="">
				<rect x="-1690.384" y="-2634.529" width="5.586" height="5.586"/>
			</g>
		</g>
		<g transform="translate(595,910) scale(0.35,0.35)">
			<g transform="">
				<rect x="-1784.799" y="-2634.529" width="5.586" height="5.586"/>
			</g>
		</g>
		<g transform="translate(665,910) scale(0.35,0.35)">
			<g transform="">
				<rect x="-1973.628" y="-2634.529" width="5.586" height="5.586"/>
			</g>
		</g>
		<g transform="translate(840,910) scale(0.35,0.35)">
			<g transform="">
				<rect x="-2445.7" y="-2634.529" width="5.586" height="5.586"/>
			</g>
		</g>
		<g transform="translate(875,910) scale(0.35,0.35)">
			<g transform="">
				<rect x="-2540.115" y="-2634.529" width="5.586" height="5.586"/>
			</g>
		</g>
		<g transform="translate(910,910) scale(0.35,0.35)">
			<g transform="">
				<rect x="-2634.529" y="-2634.529" width="5.586" height="5.586"/>
			</g>
		</g>
		<g transform="translate(980,910) scale(0.35,0.35)">
			<g transform="">
				<rect x="-2823.358" y="-2634.529" width="5.586" height="5.586"/>
			</g>
		</g>
		<g transform="translate(350,945) scale(0.35,0.35)">
			<g transform="">
				<rect x="-1123.897" y="-2728.944" width="5.586" height="5.586"/>
			</g>
		</g>
		<g transform="translate(385,945) scale(0.35,0.35)">
			<g transform="">
				<rect x="-1218.312" y="-2728.944" width="5.586" height="5.586"/>
			</g>
		</g>
		<g transform="translate(560,945) scale(0.35,0.35)">
			<g transform="">
				<rect x="-1690.384" y="-2728.944" width="5.586" height="5.586"/>
			</g>
		</g>
		<g transform="translate(595,945) scale(0.35,0.35)">
			<g transform="">
				<rect x="-1784.799" y="-2728.944" width="5.586" height="5.586"/>
			</g>
		</g>
		<g transform="translate(665,945) scale(0.35,0.35)">
			<g transform="">
				<rect x="-1973.628" y="-2728.944" width="5.586" height="5.586"/>
			</g>
		</g>
		<g transform="translate(700,945) scale(0.35,0.35)">
			<g transform="">
				<rect x="-2068.042" y="-2728.944" width="5.586" height="5.586"/>
			</g>
		</g>
		<g transform="translate(770,945) scale(0.35,0.35)">
			<g transform="">
				<rect x="-2256.871" y="-2728.944" width="5.586" height="5.586"/>
			</g>
		</g>
		<g transform="translate(840,945) scale(0.35,0.35)">
			<g transform="">
				<rect x="-2445.7" y="-2728.944" width="5.586" height="5.586"/>
			</g>
		</g>
		<g transform="translate(945,945) scale(0.35,0.35)">
			<g transform="">
				<rect x="-2728.944" y="-2728.944" width="5.586" height="5.586"/>
			</g>
		</g>
		<g transform="translate(280,980) scale(0.35,0.35)">
			<g transform="">
				<rect x="-935.068" y="-2823.358" width="5.586" height="5.586"/>
			</g>
		</g>
		<g transform="translate(315,980) scale(0.35,0.35)">
			<g transform="">
				<rect x="-1029.483" y="-2823.358" width="5.586" height="5.586"/>
			</g>
		</g>
		<g transform="translate(385,980) scale(0.35,0.35)">
			<g transform="">
				<rect x="-1218.312" y="-2823.358" width="5.586" height="5.586"/>
			</g>
		</g>
		<g transform="translate(490,980) scale(0.35,0.35)">
			<g transform="">
				<rect x="-1501.555" y="-2823.358" width="5.586" height="5.586"/>
			</g>
		</g>
		<g transform="translate(525,980) scale(0.35,0.35)">
			<g transform="">
				<rect x="-1595.97" y="-2823.358" width="5.586" height="5.586"/>
			</g>
		</g>
		<g transform="translate(595,980) scale(0.35,0.35)">
			<g transform="">
				<rect x="-1784.799" y="-2823.358" width="5.586" height="5.586"/>
			</g>
		</g>
		<g transform="translate(630,980) scale(0.35,0.35)">
			<g transform="">
				<rect x="-1879.213" y="-2823.358" width="5.586" height="5.586"/>
			</g>
		</g>
		<g transform="translate(700,980) scale(0.35,0.35)">
			<g transform="">
				<rect x="-2068.042" y="-2823.358" width="5.586" height="5.586"/>
			</g>
		</g>
		<g transform="translate(770,980) scale(0.35,0.35)">
			<g transform="">
				<rect x="-2256.871" y="-2823.358" width="5.586" height="5.586"/>
			</g>
		</g>
		<g transform="translate(805,980) scale(0.35,0.35)">
			<g transform="">
				<rect x="-2351.286" y="-2823.358" width="5.586" height="5.586"/>
			</g>
		</g>
		<g transform="translate(840,980) scale(0.35,0.35)">
			<g transform="">
				<rect x="-2445.7" y="-2823.358" width="5.586" height="5.586"/>
			</g>
		</g>
		<g transform="translate(945,980) scale(0.35,0.35)">
			<g transform="">
				<rect x="-2728.944" y="-2823.358" width="5.586" height="5.586"/>
			</g>
		</g>
		<g transform="translate(0,0) scale(2.45, 2.45)">
			<g transform="">
				<g>
					<path class="st1" d="M-22-24.841h-1.772c-0.228,0-0.44,0.07-0.613,0.19c-0.135,0.093-0.247,0.216-0.327,0.359
						c-0.082,0.148-0.129,0.318-0.129,0.499v1.814c0,0.578,0.48,1.048,1.069,1.048l0.886,0l0.886,0c0.59,0,1.069-0.47,1.069-1.048
						v-1.814C-20.931-24.371-21.411-24.841-22-24.841z"/>
					<path d="M-22-25.678h-1.772l0,0c-0.863,0-1.595,0.57-1.829,1.35c-0.024,0.081-0.043,0.164-0.056,0.248
						c-0.014,0.094-0.022,0.189-0.022,0.287v1.814c0,1.04,0.856,1.886,1.907,1.886l0.886,0l0.886,0c1.051,0,1.907-0.846,1.907-1.886
						v-1.814C-20.093-24.833-20.949-25.678-22-25.678z M-20.931-21.98c0,0.578-0.48,1.048-1.069,1.048l-0.886,0l-0.886,0
						c-0.59,0-1.069-0.47-1.069-1.048v-1.814c0-0.18,0.047-0.35,0.129-0.499c0.079-0.143,0.192-0.266,0.327-0.359
						c0.174-0.12,0.385-0.19,0.613-0.19H-22c0.59,0,1.069,0.47,1.069,1.047V-21.98z"/>
				</g>
			</g>
		</g>
		<g transform="translate(770,0) scale(2.45, 2.45)">
			<g transform="">
				<g>
					<path class="st1" d="M-318.732-24.841h-1.772c-0.228,0-0.44,0.07-0.613,0.19c-0.135,0.093-0.247,0.216-0.327,0.359
						c-0.082,0.148-0.129,0.318-0.129,0.499v1.814c0,0.578,0.48,1.048,1.069,1.048l0.886,0l0.886,0c0.59,0,1.069-0.47,1.069-1.048
						v-1.814C-317.663-24.371-318.142-24.841-318.732-24.841z"/>
					<path d="M-318.732-25.678h-1.772l0,0c-0.863,0-1.595,0.57-1.829,1.35c-0.024,0.081-0.043,0.164-0.056,0.248
						c-0.014,0.094-0.022,0.189-0.022,0.287v1.814c0,1.04,0.856,1.886,1.907,1.886l0.886,0l0.886,0c1.051,0,1.907-0.846,1.907-1.886
						v-1.814C-316.825-24.833-317.68-25.678-318.732-25.678z M-317.663-21.98c0,0.578-0.48,1.048-1.069,1.048l-0.886,0l-0.886,0
						c-0.59,0-1.069-0.47-1.069-1.048v-1.814c0-0.18,0.047-0.35,0.129-0.499c0.079-0.143,0.192-0.266,0.327-0.359
						c0.174-0.12,0.385-0.19,0.613-0.19h1.772c0.59,0,1.069,0.47,1.069,1.047V-21.98z"/>
				</g>
			</g>
		</g>
		<g transform="translate(0,770) scale(2.45, 2.45)">
			<g transform="">
				<g>
					<path class="st1" d="M-22-321.572h-1.772c-0.228,0-0.44,0.07-0.613,0.19c-0.135,0.093-0.247,0.216-0.327,0.359
						c-0.082,0.148-0.129,0.318-0.129,0.499v1.814c0,0.578,0.48,1.048,1.069,1.048l0.886,0l0.886,0c0.59,0,1.069-0.47,1.069-1.048
						v-1.814C-20.931-321.102-21.411-321.572-22-321.572z"/>
					<path d="M-22-322.41h-1.772l0,0c-0.863,0-1.595,0.57-1.829,1.35c-0.024,0.081-0.043,0.164-0.056,0.248
						c-0.014,0.094-0.022,0.189-0.022,0.287v1.814c0,1.04,0.856,1.886,1.907,1.886l0.886,0l0.886,0c1.051,0,1.907-0.846,1.907-1.886
						v-1.814C-20.093-321.564-20.949-322.41-22-322.41z M-20.931-318.711c0,0.578-0.48,1.048-1.069,1.048l-0.886,0l-0.886,0
						c-0.59,0-1.069-0.47-1.069-1.048v-1.814c0-0.18,0.047-0.35,0.129-0.499c0.079-0.143,0.192-0.266,0.327-0.359
						c0.174-0.12,0.385-0.19,0.613-0.19H-22c0.59,0,1.069,0.47,1.069,1.047V-318.711z"/>
				</g>
			</g>
		</g>
		<g transform="translate(70,70) scale(1.05, 1.05)">
			<g transform="">
				<g>
					<g id="XMLID_1_">
						<g>
							<path d="M-121.333-117.275c-0.843,0-1.528-0.672-1.528-1.497v-2.592c0-0.258,0.067-0.5,0.184-0.713
								c0.113-0.204,0.274-0.38,0.467-0.512c0.248-0.171,0.551-0.271,0.876-0.271h2.532c0.842,0,1.528,0.671,1.528,1.497v2.592
								c0,0.825-0.686,1.497-1.528,1.497h-1.266L-121.333-117.275L-121.333-117.275z"/>
						</g>
					</g>
				</g>
			</g>
		</g>
		<g transform="translate(840,70) scale(1.05, 1.05)">
			<g transform="">
				<g>
					<g id="XMLID_00000163051271758327052770000002915820234690600846_">
						<g>
							<path d="M-813.706-117.275c-0.843,0-1.529-0.672-1.529-1.497v-2.592c0-0.258,0.067-0.5,0.184-0.713
								c0.113-0.204,0.274-0.38,0.467-0.512c0.248-0.171,0.551-0.271,0.876-0.271h2.532c0.842,0,1.528,0.671,1.528,1.497v2.592
								c0,0.825-0.686,1.497-1.528,1.497h-1.266L-813.706-117.275L-813.706-117.275z"/>
						</g>
					</g>
				</g>
			</g>
		</g>
		<g transform="translate(70,840) scale(1.05, 1.05)">
			<g transform="">
				<g>
					<g id="XMLID_00000064314873810584536170000002325037444463059846_">
						<g>
							<path d="M-121.333-809.648c-0.843,0-1.528-0.672-1.528-1.497v-2.592c0-0.258,0.067-0.5,0.184-0.713
								c0.113-0.204,0.274-0.38,0.467-0.512c0.248-0.171,0.551-0.271,0.876-0.271h2.532c0.842,0,1.528,0.671,1.528,1.497v2.592
								c0,0.825-0.686,1.497-1.528,1.497h-1.266L-121.333-809.648L-121.333-809.648z"/>
						</g>
					</g>
				</g>
			</g>
		</g>
	</g>
</g>
</svg>
